# xmcd CD database file
#
# Track frame offsets:
#	150
#	32450
#	68832
#	94015
#	123260
#	143855
#	160575
#	199477
#	233477
#	253655
#	279040
#
# Disc length: 4035 seconds
#
# Revision: 0
# Processed by: cddbd v1.4PL0 Copyright (c) Steve Scherf et al.
# Submitted via: CDex 1.40Beta8
#
DISCID=8a0fc10b
DTITLE=Jeremy Monteiro Trio - Lucky Green Blues
DYEAR=1900
DGENRE=Blues
TTITLE0=The Days of Wine and Roses
TTITLE1=Beautiful Love
TTITLE2=Body and Soul
TTITLE3=Bud's Bubble
TTITLE4=Asiana
TTITLE5=Lucky Green Blues
TTITLE6=I Hear a Rhapsody
TTITLE7=Just In Time
TTITLE8=Lucky Green Blues (Instrumental)
TTITLE9=Everything Happens to Me
TTITLE10=Giant Steps
EXTD=ID3G: 0
EXTT0=
EXTT1=
EXTT2=
EXTT3=
EXTT4=
EXTT5=
EXTT6=
EXTT7=
EXTT8=
EXTT9=
EXTT10=
PLAYORDER=
